<svg xmlns="http://www.w3.org/2000/svg" width="271" height="271" viewBox="0 0 271 271" fill="none">
<rect width="271" height="271" rx="12" fill="url(#paint0_linear_1613_13424)"/>
<path d="M95.5375 135.27C95.8304 135.506 96.3073 135.626 96.7109 135.862C97.708 136.442 98.3226 136.802 98.5548 136.941C100.152 137.891 101.368 139.21 102.204 140.897C102.918 142.343 103.411 143.813 103.685 145.31C103.886 146.418 104.175 148.065 104.24 149.316C104.341 151.225 104.049 153.139 103.366 155.058C102.798 156.651 101.497 157.942 100.142 158.928C100.071 158.979 99.9966 159.023 99.9187 159.06C99.68 159.174 99.2894 159.363 98.7469 159.626C97.2724 160.342 95.697 160.585 93.7391 160.845C93.0089 160.942 92.2717 161.009 91.5274 161.047C88.624 161.195 85.7781 161.414 82.9897 161.705C81.7723 161.832 80.7242 161.806 79.5899 161.648C79.0674 161.576 78.934 160.74 78.8087 160.23C78.6014 159.398 78.238 157.726 77.7183 155.214C77.5403 154.357 77.357 153.601 77.1682 152.947C76.5725 150.872 76.2405 148.799 75.7181 146.818C75.1892 144.803 74.8751 143.361 74.4161 141.212C74.1557 139.991 73.9111 139.007 73.6821 138.261C73.5606 137.869 73.3317 136.873 72.9953 135.273C72.7903 134.303 72.5532 133.31 72.2841 132.293C71.8664 130.721 71.4145 128.749 70.9284 126.379C70.782 125.665 70.706 125.089 70.7006 124.652C70.693 124.078 70.7451 123.5 70.8568 122.917C71.1172 121.55 72.3753 120.399 73.591 119.909C75.6676 119.071 77.7313 119.169 79.419 120.823C80.7698 122.147 80.8528 124.112 81.315 125.879C81.5927 126.942 81.8493 128.142 82.0848 129.477C82.1987 130.123 82.6088 130.46 83.3152 130.49C84.6855 130.545 85.9099 130.539 86.9884 130.47C87.8021 130.42 88.8746 130.207 89.4572 129.593C89.9715 129.053 90.476 128.442 90.673 127.762C90.8466 127.169 90.9453 126.545 90.9692 125.89C91.0137 124.679 90.8851 123.466 90.5835 122.251C90.5238 122.012 90.3041 121.47 89.9243 120.626C89.6997 120.126 89.4784 119.735 89.2603 119.451C88.7802 118.822 88.1374 117.986 87.3757 117.525C86.4627 116.975 85.815 116.596 84.7864 116.472C83.3542 116.3 82.1092 116.247 81.0513 116.313C77.6808 116.521 74.6472 116.651 71.682 116.324C70.0382 116.142 68.6391 115.445 67.4847 114.233C66.6102 113.314 65.8594 112.229 65.2323 110.98C64.9849 110.487 64.6361 109.913 64.1858 109.258C63.8614 108.786 63.7654 108.3 63.8977 107.799C63.9171 107.728 63.9571 107.664 64.0127 107.615C64.0682 107.566 64.1369 107.535 64.2102 107.524C64.6708 107.461 65.2241 107.539 65.758 107.559C70.5113 107.737 76.3116 107.945 83.1589 108.184C83.568 108.198 84.7734 108.303 86.7752 108.501C89.5403 108.773 92.2663 109.764 94.4194 111.539C95.4675 112.403 96.3588 113.381 97.0934 114.472C97.3114 114.794 97.6397 115.381 98.078 116.231C98.3373 116.737 98.5836 117.36 98.8169 118.101C99.2009 119.328 99.457 120.192 99.585 120.691C100.119 122.788 100.369 124.875 100.337 126.952C100.314 128.349 100.04 129.683 99.5134 130.954C99.2628 131.559 98.7745 132.228 98.467 132.705C97.7915 133.753 96.8606 134.088 95.6823 134.418C95.5882 134.444 95.504 134.496 95.4401 134.567C95.3761 134.638 95.3353 134.725 95.3227 134.817C95.2999 134.985 95.3715 135.136 95.5375 135.27ZM84.0117 139.197C83.9303 139.365 83.9282 139.557 84.0052 139.774C84.3421 140.728 84.4576 141.638 84.6611 142.666C84.9595 144.175 85.2377 145.502 85.496 146.647C85.7238 147.656 85.7694 148.477 85.9142 149.739C85.9468 150.022 86.1394 150.799 86.492 152.072C86.6661 152.7 86.7914 153.196 87.4994 153.099C88.3891 152.975 89.2332 152.872 90.0317 152.791C91.2122 152.669 91.9934 152.513 92.3753 152.321C93.1836 151.915 93.8579 151.381 94.3983 150.718C94.497 150.596 94.5876 150.351 94.6701 149.984C95.2446 147.422 94.9532 144.46 93.814 142.053C93.7185 141.851 93.3947 141.346 92.8424 140.536C92.7573 140.411 92.6522 140.301 92.5315 140.211C91.4997 139.434 90.603 138.936 89.2799 138.772C87.8661 138.598 86.4426 138.6 85.0094 138.777C84.6383 138.823 84.3405 138.923 84.1159 139.076C84.071 139.107 84.0352 139.149 84.0117 139.197Z" fill="white"/>
<path d="M152.446 141.203C152.441 141.183 152.432 141.164 152.419 141.147C152.407 141.13 152.391 141.117 152.373 141.106C152.355 141.096 152.335 141.089 152.315 141.087C152.294 141.085 152.273 141.087 152.253 141.093C151.681 141.265 151.194 141.451 150.673 141.88C150.264 142.217 149.973 142.466 149.799 142.627C149.756 142.667 149.708 142.702 149.658 142.731C148.426 143.436 147.08 143.842 145.618 143.952C144.347 144.048 142.747 143.708 141.444 143.363C140.861 143.208 140.523 142.811 140.02 142.456C139.473 142.07 139.158 141.82 139.076 141.706C138.112 140.365 137.484 138.935 137.191 137.414C136.934 136.08 136.791 134.649 136.805 133.167C136.846 129.07 137.071 125.033 137.481 121.055C137.657 119.347 138.052 117.64 138.666 115.932C139.663 113.16 141.911 110.781 144.922 110.193C146.445 109.896 148.022 109.949 149.653 110.351C150.959 110.673 152.109 111.329 153.103 112.317C153.113 112.327 153.121 112.338 153.129 112.35L154.143 113.985C154.185 114.053 154.241 114.111 154.308 114.154C154.374 114.198 154.45 114.226 154.529 114.238C154.745 114.267 154.998 114.216 155.289 114.085C155.694 113.901 156.279 113.445 157.041 112.716C157.285 112.484 157.681 112.272 158.23 112.08C159.718 111.562 161.332 111.396 163.07 111.582C163.165 111.592 163.254 111.63 163.327 111.693C163.399 111.755 163.451 111.839 163.475 111.931C163.533 112.163 163.59 112.46 163.564 112.698C163.481 113.473 163.473 114.229 163.374 114.884C162.877 118.159 162.487 121.481 162.204 124.849C162.077 126.367 161.94 127.664 161.794 128.74C161.236 132.854 160.936 135.174 160.892 135.699C160.646 138.631 160.456 140.813 160.322 142.246C160.125 144.358 159.732 146.525 159.143 148.748C158.597 150.812 157.553 152.69 155.862 153.989C154.506 155.031 152.944 155.727 151.173 156.075C149.765 156.352 148.059 156.536 146.461 156.388C145.344 156.283 144.475 156.171 143.856 156.051C142.715 155.828 141.165 155.239 140.239 154.37C139.53 153.706 138.994 153.251 138.589 152.443C138.293 151.849 138.049 151.175 137.857 150.42C137.695 149.787 137.684 148.931 137.824 147.85C137.924 147.07 138.474 146.151 138.963 145.617C139.187 145.374 139.549 145.219 140.049 145.152C141.136 145.007 142.092 145.032 142.917 145.226C143.57 145.38 143.986 145.782 144.165 146.431C144.455 147.484 144.868 148.868 145.405 150.582C145.88 152.099 147.871 152.034 149.153 151.689C149.565 151.578 149.845 151.36 150.082 150.978C150.401 150.463 150.662 150.077 150.864 149.822C150.919 149.754 150.963 149.679 150.995 149.598C151.209 149.072 151.377 148.451 151.498 147.738C151.738 146.333 151.907 144.963 152.004 143.628C152.061 142.854 152.353 142.006 152.457 141.395C152.467 141.342 152.463 141.278 152.446 141.203ZM151.384 116.449C150.587 116.314 149.571 116.303 148.876 116.703C148.862 116.712 148.85 116.722 148.841 116.733L147.763 117.864C147.751 117.875 147.741 117.89 147.734 117.906C147.403 118.588 147.213 119.018 147.163 119.193C146.625 121.113 146.276 123.144 146.118 125.287C145.841 129.016 145.684 131.198 145.646 131.834C145.586 132.859 145.64 133.986 145.807 135.214C145.893 135.846 146.035 136.397 146.235 136.869C146.867 138.363 148.543 138.969 150.017 138.316C150.787 137.976 151.274 137.675 151.633 136.96C152.327 135.582 152.628 134.147 152.833 132.565C153.291 129.02 153.572 125.766 153.676 122.801C153.714 121.728 153.661 120.697 153.518 119.706C153.412 118.969 153.316 118.215 152.973 117.758C152.638 117.312 152.192 116.909 151.637 116.549C151.56 116.498 151.475 116.464 151.384 116.449Z" fill="white"/>
<path d="M207.111 112.124C207.357 113.361 206.618 114.42 206.237 115.521C205.711 117.039 204.761 119.042 204.155 120.645C203.657 121.964 203.205 122.854 202.738 124.143C202.23 125.541 201.444 127.256 200.918 128.688C200.482 129.88 199.999 130.804 199.603 131.904C199.159 133.138 198.366 134.782 197.972 135.905C197.862 136.219 197.608 136.887 197.211 137.908C196.829 138.89 196.187 139.887 195.284 140.898C194.91 141.316 193.752 141.375 193.233 141.316C192.684 141.254 192.227 141.038 191.861 140.667C191.287 140.083 191.032 139.392 191.095 138.595C191.175 137.583 191.394 136.319 191.751 134.803C192.389 132.093 192.875 130.301 193.45 127.689C193.734 126.395 193.93 125.543 194.037 125.132C194.529 123.251 194.835 121.412 195.312 119.628C195.823 117.713 196.186 115.98 196.633 113.976C196.707 113.647 196.942 113.092 197.338 112.311C197.372 112.244 197.427 112.189 197.496 112.155C197.803 112.003 198.046 111.921 198.225 111.909C199.292 111.836 200.262 111.942 201.473 111.937C203.691 111.928 205.471 111.911 206.813 111.885C206.883 111.883 206.951 111.907 207.005 111.95C207.06 111.994 207.097 112.056 207.111 112.124Z" fill="white"/>
<path d="M163.68 143.685C163.86 143.588 164.129 143.525 164.486 143.498C166.519 143.343 168.402 143.333 170.136 143.467C170.813 143.519 170.903 143.938 170.789 144.574C170.762 144.729 170.654 145.555 170.465 147.053C170.379 147.729 170.592 148.316 171.104 148.814C171.604 149.299 171.972 149.536 172.664 149.46C173.938 149.318 175.017 148.382 175.736 147.351C176.026 146.935 176.168 146.223 176.309 145.627C176.683 144.05 176.332 142.201 175.124 141.041C174.714 140.647 174.455 140.297 174.034 140.012C173.246 139.482 172.59 138.891 171.739 138.325C170.912 137.776 170.074 137.097 169.223 136.29C168.314 135.428 167.585 134.406 167.036 133.226C166.323 131.696 166.124 129.893 166.227 128.299C166.39 125.743 166.997 123.28 168.165 120.94C168.432 120.406 168.842 119.76 169.396 119.003C171.643 115.929 175.284 114.29 179.035 114.034C180.928 113.905 182.727 114.245 184.432 115.055C186.113 115.854 187.15 117.148 187.646 118.892C188.077 120.404 188.148 121.986 187.859 123.638C187.805 123.946 187.598 124.823 187.239 126.268C187.085 126.892 186.728 127.601 186.167 128.394C185.246 129.697 183.525 130.07 182.072 129.652C181.537 129.497 181.138 129.28 180.876 129.001C180.406 128.501 180.111 128.08 180.01 127.359C179.929 126.772 179.921 126.229 179.987 125.731C180.196 124.156 180.637 122.265 179.165 121.259C179.103 121.216 179.032 121.189 178.957 121.181C178.438 121.122 177.919 121.154 177.398 121.277C176.428 121.503 175.574 122.654 175.194 123.498C174.241 125.614 174.299 127.684 175.707 129.605C176.037 130.055 176.637 130.618 177.507 131.294C178.527 132.086 179.001 132.514 180.15 133.45C180.872 134.039 181.578 134.789 182.269 135.699C183.032 136.704 183.515 137.849 183.719 139.135C183.924 140.434 184.022 141.438 183.778 142.587C183.704 142.93 183.636 143.319 183.574 143.754C183.372 145.171 182.913 146.53 182.196 147.832C181.541 149.019 181.076 149.888 180.226 150.83C178.702 152.523 176.994 153.916 174.91 154.619C172.691 155.369 170.43 155.531 168.126 155.107C166.427 154.793 165.177 154.176 164.214 152.807C163.603 151.941 163.251 150.953 163.158 149.845C162.999 147.961 163.08 146.038 163.4 144.076C163.414 143.994 163.446 143.916 163.495 143.848C163.543 143.781 163.607 143.725 163.68 143.685Z" fill="white"/>
<path d="M125.244 159.879C125.189 159.792 125.106 159.727 125.009 159.693C124.912 159.659 124.806 159.659 124.708 159.693C124.336 159.822 124.189 160.178 123.931 160.357C123.263 160.82 122.109 162.087 121.107 162.582C120.539 162.862 120.042 163.056 119.614 163.165C117.31 163.756 115.125 163.566 113.059 162.593C112.318 162.245 111.646 161.756 111.043 161.127C110.116 160.164 109.496 159.187 109.164 157.825C109.018 157.221 108.895 156.423 108.795 155.433C108.289 150.431 108.074 146.364 107.472 141.534C107.41 141.033 107.415 140.266 107.356 139.67C107.097 137.062 106.843 134.086 106.595 130.742C106.419 128.379 106.098 125.959 105.841 123.555C105.755 122.757 105.729 122.008 105.761 121.308C105.786 120.76 106.083 120.476 106.652 120.455C109.05 120.367 111.728 120.343 114.685 120.383C115.232 120.39 115.63 120.351 115.73 120.943C115.856 121.697 115.946 122.493 116 123.331C116.477 130.801 116.753 136.927 117.25 143.969C117.461 146.966 117.583 150.415 117.933 153.522C117.974 153.88 118.132 154.593 118.255 155.234C118.576 156.891 120.023 157.918 121.659 157.574C122.399 157.419 123.07 157.068 123.673 156.521C123.876 156.337 124.008 156.088 124.067 155.774C124.337 154.351 124.444 152.989 124.386 151.689C124.313 150.037 124.229 147.125 124.132 142.955C124.088 141.041 123.989 138.13 123.834 134.222C123.684 130.366 123.588 126.996 123.548 124.113C123.539 123.415 123.604 122.808 123.742 122.294C123.787 122.121 123.912 121.801 124.116 121.332C124.616 120.178 126.199 119.122 127.428 118.958C129.026 118.743 130.424 119.208 131.622 120.354C131.834 120.557 132.014 120.838 132.164 121.199C132.601 122.245 132.819 123.39 132.818 124.634C132.812 131.6 132.819 135.641 132.841 136.757C132.855 137.444 132.866 138.014 132.875 138.466C132.945 142.164 132.825 150.003 132.935 157.358C132.956 158.749 133.155 160.007 133.038 161.373C132.979 162.048 132.224 162.025 131.614 162.047C131.501 162.051 131.389 162.063 131.279 162.082C129.634 162.368 128.019 162.157 126.435 161.451C125.962 161.239 125.727 160.987 125.54 160.549C125.366 160.14 125.268 159.917 125.244 159.879Z" fill="white"/>
<path d="M193.458 150.453C195.267 149.404 195.896 147.109 194.863 145.326C193.829 143.542 191.524 142.947 189.715 143.996C187.905 145.045 187.276 147.341 188.31 149.124C189.344 150.907 191.648 151.502 193.458 150.453Z" fill="white"/>
<defs>
<linearGradient id="paint0_linear_1613_13424" x1="0" y1="0" x2="271" y2="271" gradientUnits="userSpaceOnUse">
<stop stop-color="#CA008F"/>
<stop offset="0.514423" stop-color="#F63144"/>
<stop offset="1" stop-color="#FFBF2B"/>
</linearGradient>
</defs>
</svg>
