<svg xmlns="http://www.w3.org/2000/svg" width="271" height="271" viewBox="0 0 271 271" fill="none">
<rect width="271" height="271" rx="12" fill="#00CD3C"/>
<path d="M172.522 126.742C175.074 126.742 177.143 124.673 177.143 122.121C177.143 119.569 175.074 117.5 172.522 117.5C169.97 117.5 167.901 119.569 167.901 122.121C167.901 124.673 169.97 126.742 172.522 126.742Z" fill="white"/>
<path d="M94.6776 134.628C94.6718 134.588 94.6528 134.552 94.6236 134.524C94.5945 134.497 94.5568 134.48 94.5169 134.476C94.4769 134.473 94.4369 134.483 94.4035 134.505C94.3701 134.527 94.3451 134.56 94.3327 134.598C94.0336 135.491 93.7127 136.256 93.37 136.892C92.7366 138.068 91.4523 140.522 89.517 144.253C89.2264 144.813 88.8879 145.338 88.5014 145.829C87.2636 147.401 85.0779 147.734 83.2731 147.016C82.3273 146.64 81.4133 145.339 80.988 144.492C79.7142 141.952 78.3925 139.344 77.0229 136.67C76.7252 136.087 76.4671 135.421 76.2485 134.67C76.2364 134.627 76.2106 134.588 76.1747 134.56C76.1389 134.533 76.0951 134.517 76.0498 134.517C76.0045 134.516 75.9602 134.53 75.9236 134.556C75.8869 134.583 75.8598 134.621 75.8464 134.664C75.7689 134.908 75.7272 135.224 75.7216 135.612C75.6638 139.808 75.6532 143.97 75.6899 148.095C75.7047 149.871 75.7385 151.76 74.1495 152.801C72.0929 154.149 69.3529 153.245 68.4875 150.88C68.3521 150.512 68.2865 149.732 68.2907 148.54C68.3076 143.782 68.3084 135.435 68.2928 123.499C68.2914 122.181 68.6469 121.039 69.3592 120.071C69.6188 119.717 70.0673 119.424 70.7049 119.193C72.167 118.66 74.433 118.854 75.5904 120.122C76.0728 120.649 76.5066 121.391 76.898 122.164C79.8405 127.967 82.0755 132.358 83.6032 135.339C84.0665 136.245 84.3818 137.046 84.7161 137.88C84.7265 137.906 84.743 137.928 84.7641 137.946C84.7852 137.964 84.8103 137.976 84.8371 137.982C84.8639 137.987 84.8916 137.986 84.9178 137.978C84.9439 137.971 84.9677 137.957 84.9869 137.937C85.5011 137.429 85.8566 136.947 86.2036 136.272C88.1515 132.482 90.6666 127.629 93.7487 121.713C94.0379 121.16 94.3616 120.676 94.7199 120.261C95.6001 119.246 96.9902 118.84 98.2914 118.916C101.8 119.119 102.176 121.903 102.153 124.715C102.137 126.565 102.131 134.588 102.134 148.785C102.134 150.486 101.948 152.111 100.291 152.989C99.3994 153.462 98.4283 153.542 97.3774 153.231C95.5197 152.678 94.8574 150.979 94.8595 149.196C94.8637 146.108 94.8595 142.058 94.8468 137.044C94.844 136.147 94.7876 135.342 94.6776 134.628Z" fill="white"/>
<path d="M140.044 119.199H139.591C137.673 119.199 136.119 120.754 136.119 122.671V149.949C136.119 151.867 137.673 153.421 139.591 153.421H140.044C141.961 153.421 143.516 151.867 143.516 149.949V122.671C143.516 120.754 141.961 119.199 140.044 119.199Z" fill="white"/>
<path d="M161.651 128.856C168.692 128.858 174.092 134.137 174.092 141.168C174.09 148.199 168.688 153.476 161.646 153.474C154.603 153.474 149.203 148.195 149.205 141.164C149.205 134.133 154.607 128.856 161.651 128.856ZM161.655 147.181C162.378 147.181 163.094 147.026 163.762 146.725C164.43 146.424 165.037 145.982 165.548 145.425C166.059 144.868 166.465 144.207 166.741 143.48C167.018 142.752 167.16 141.972 167.16 141.185C167.16 139.595 166.58 138.07 165.548 136.945C164.515 135.82 163.115 135.189 161.655 135.189C160.195 135.189 158.794 135.82 157.762 136.945C156.729 138.07 156.149 139.595 156.149 141.185C156.149 141.972 156.292 142.752 156.569 143.48C156.845 144.207 157.251 144.868 157.762 145.425C158.273 145.982 158.88 146.424 159.548 146.725C160.216 147.026 160.932 147.181 161.655 147.181Z" fill="white"/>
<path d="M114.245 143.174C114.228 143.179 114.212 143.188 114.199 143.2C114.186 143.213 114.176 143.228 114.169 143.244C114.162 143.261 114.16 143.279 114.161 143.297C114.163 143.315 114.168 143.332 114.177 143.347C114.448 143.804 114.682 144.249 114.88 144.683C115.671 146.424 117.685 147.232 119.539 147.238C120.931 147.243 122.132 146.909 123.142 146.238C124.513 145.326 125.882 144.564 127.452 145.489C128.33 146.006 128.899 146.773 129.162 147.789C129.464 148.954 128.58 150.351 127.687 151.032C125.698 152.546 123.387 153.352 120.753 153.451C118.206 153.548 115.231 153.106 113.009 151.728C109.359 149.462 107.533 146.077 107.385 141.775C107.214 136.837 109.522 132.203 114.002 129.95C116.433 128.725 119.712 128.6 122.393 129.33C124.166 129.814 126.047 130.934 127.298 132.288C128.931 134.061 129.861 136.183 130.088 138.654C130.171 139.541 130.008 141.219 129.278 141.854C128.483 142.545 127.531 142.89 126.424 142.89C120.286 142.892 117.113 142.895 116.902 142.901C115.965 142.928 115.163 142.895 114.245 143.174ZM114.774 138.46L123.034 138.388C123.036 138.388 123.039 138.387 123.04 138.385C123.042 138.384 123.043 138.382 123.043 138.379V138.362C123.035 137.436 122.597 136.55 121.827 135.902C121.057 135.253 120.017 134.894 118.936 134.903H118.813C118.278 134.908 117.748 135.003 117.255 135.183C116.761 135.362 116.314 135.624 115.938 135.952C115.562 136.28 115.265 136.668 115.064 137.094C114.863 137.52 114.761 137.975 114.765 138.434V138.451C114.765 138.454 114.766 138.456 114.768 138.457C114.77 138.459 114.772 138.46 114.774 138.46Z" fill="white"/>
<path d="M186.793 130.946C186.855 131.001 186.934 131.031 187.016 131.03C187.098 131.03 187.177 130.999 187.238 130.944C188.72 129.583 190.471 128.891 192.489 128.869C194.484 128.845 196.56 129.287 198.24 130.367C201.317 132.343 202.552 135.47 202.671 139.118C202.707 140.211 202.718 143.468 202.702 148.889C202.698 149.938 202.734 150.979 202.142 151.823C201.246 153.104 199.986 153.639 198.363 153.427C196.414 153.173 195.396 151.25 195.405 149.422C195.42 146.257 195.432 143.293 195.439 140.531C195.443 138.98 195.324 137.26 194.226 136.046C193.35 135.076 191.421 135.199 190.295 135.597C187.915 136.441 187.866 139.594 187.836 141.856C187.824 142.84 187.822 145.449 187.83 149.682C187.836 153.487 183.727 154.709 181.246 152.151C180.539 151.421 180.423 150.408 180.427 149.367C180.442 145.233 180.444 139.731 180.433 132.861C180.431 131.716 180.7 130.728 181.631 129.855C182.513 129.025 184.151 129.12 185.2 129.554C185.231 129.567 185.26 129.585 185.285 129.607L186.793 130.946Z" fill="white"/>
</svg>
