<svg xmlns="http://www.w3.org/2000/svg" viewBox="0 0 24 24"><path d="m12.8 11.84.72 1.01h-.11A5.28 5.28 0 0 0 8.6 14.1a3.88 3.88 0 0 0-1.29 2.41 3.35 3.35 0 0 0 1.76 3.37c1.06.6 2.19.73 3.37.52a5.02 5.02 0 0 0 3.13-1.81c.5-.62.79-1.32.84-2.12a3.84 3.84 0 0 0-.63-2.21c-.1-.2-.22-.38-.33-.57l-.2-.31-2.01-3.36a728.33 728.33 0 0 0-2.16-3.58l-.14-.25.09-.01.09-.01A6 6 0 0 0 13 5.93a3.46 3.46 0 0 0 2.56-3.31A10.04 10.04 0 0 1 12 22.04c-5.52 0-10-4.5-10-10.04a10.02 10.02 0 0 1 11.64-9.9 9.8 9.8 0 0 1-1.6.38A7 7 0 0 0 9.2 3.56a2.4 2.4 0 0 0-1.03 1.29.81.81 0 0 0 .12.76l1.43 1.97.32.44 2.76 3.82Z" fill="#11af52"/></svg>
