<?xml version="1.0" encoding="utf-8"?>

<!DOCTYPE svg PUBLIC "-//W3C//DTD SVG 1.1//EN" "http://www.w3.org/Graphics/SVG/1.1/DTD/svg11.dtd">
<!-- Uploaded to: SVG Repo, www.svgrepo.com, Generator: SVG Repo Mixer Tools -->
<svg height="800px" width="800px" version="1.1" id="_x32_" xmlns="http://www.w3.org/2000/svg" xmlns:xlink="http://www.w3.org/1999/xlink"
	 viewBox="0 0 512 512"  xml:space="preserve">
<style type="text/css">
	.st0{fill:#000000;}
</style>
<g>
	<path class="st0" d="M390.578,333.084l-42.032-10.222c2.582-2.396,3.983-4.952,3.983-7.596c0-14.011-39.002-25.369-87.105-25.369
		c-48.113,0-87.106,11.358-87.106,25.369c0,2.644,1.401,5.199,3.975,7.596l-42.024,10.222l125.155,42.289L390.578,333.084z
		 M307.667,309.619c0,6.794-18.91,12.301-42.244,12.301c-23.343,0-42.254-5.507-42.254-12.301c0-6.794,18.91-12.31,42.254-12.31
		C288.757,297.308,307.667,302.824,307.667,309.619z"/>
	<polygon class="st0" points="390.578,416.074 390.578,344.699 263.732,388.678 263.732,464.6 263.732,484.296 126.329,434.975
		126.329,418.753 101.55,424.772 101.55,453.146 266.199,512 430.848,453.146 430.848,424.772 	"/>
	<polygon class="st0" points="140.269,425.106 252.338,464.6 252.338,388.678 140.269,349.184 	"/>
	<path class="st0" d="M266.005,215.5c-2.027,1.832-4.133,3.48-6.283,5.022c21.986-3.092,46.448-2.326,73.632,2.882
		c35.142,6.74,55.655,24.312,45.248,56.572l-68.626-15.156c-1.666-7.217-8.098-12.609-15.818-12.609
		c-8.979,0-16.266,7.278-16.266,16.257c0,8.988,7.287,16.258,16.266,16.258c5.208,0,9.79-2.485,12.769-6.301l66.846,14.76
		c-5.887,14.451-11.922,24.532-11.922,24.532l27.546,5.34c0,0,11.05-29.872,18.584-65.04c6.97-32.524-20.805-69.463-70.134-88.558
		c-15.702-6.072-29.625-12.884-42.058-20.126c-0.168,5.357-0.793,10.812-1.921,16.275c-1.392,6.644-3.454,13.112-6.115,19.236
		c-2.626,6.002-5.816,11.667-9.482,16.839C274.588,206.864,270.464,211.498,266.005,215.5z"/>
	<path class="st0" d="M106.15,247.962c0.775,0.124,1.551,0.194,2.335,0.229c0.801,0.035,1.604,0.044,2.406,0
		c0.81-0.052,1.63-0.141,2.45-0.264c0.51,4.521,1.436,8.83,2.749,12.804c1.313,4,3.022,7.675,5.084,10.909
		c2.08,3.26,4.521,6.071,7.306,8.326c2.794,2.291,5.93,4.001,9.376,5.023c3.48,1.04,7.04,1.295,10.592,0.872
		c3.587-0.432,7.172-1.568,10.654-3.331c3.516-1.788,6.926-4.203,10.142-7.182c3.225-2.996,6.256-6.547,8.996-10.582
		c0.802,0.581,1.613,1.119,2.45,1.612c0.837,0.494,1.692,0.951,2.555,1.365c0.864,0.414,1.745,0.784,2.644,1.12
		c0.899,0.326,1.816,0.616,2.731,0.854c2.67,0.696,5.429,1.03,8.248,0.978c2.838-0.044,5.728-0.476,8.644-1.305
		c2.925-0.827,5.86-2.079,8.768-3.736c2.934-1.657,5.834-3.736,8.653-6.248c3.815-3.393,7.252-7.358,10.257-11.728
		c2.996-4.388,5.569-9.182,7.666-14.231c2.097-5.04,3.701-10.319,4.802-15.685c1.111-5.367,1.701-10.795,1.754-16.153
		c4.035-2.079,7.948-4.811,11.605-8.097c3.683-3.304,7.128-7.174,10.212-11.508c3.084-4.353,5.808-9.173,8.063-14.346
		c2.256-5.172,4.036-10.715,5.242-16.504c1.199-5.771,1.754-11.402,1.701-16.786c-0.052-5.349-0.696-10.46-1.868-15.166
		c-1.163-4.706-2.838-9.014-4.97-12.856c-2.115-3.807-4.688-7.146-7.631-9.904c2.106-4.926,3.745-10.01,4.856-15.112
		c1.119-5.094,1.727-10.196,1.788-15.157c0.062-4.944-0.414-9.746-1.444-14.258c-1.04-4.486-2.626-8.68-4.803-12.442
		c-1.586-2.784-3.41-5.199-5.428-7.244c-2.01-2.044-4.203-3.719-6.538-5.04c-2.335-1.322-4.794-2.283-7.358-2.899
		c-2.546-0.608-5.198-0.891-7.912-0.82c-0.934,0.018-1.877,0.088-2.829,0.186c-0.952,0.106-1.903,0.246-2.864,0.44
		c-0.951,0.176-1.912,0.396-2.872,0.66c-0.969,0.264-1.921,0.564-2.89,0.899c-0.856-4.053-2.168-7.746-3.895-10.997
		c-1.692-3.217-3.798-5.992-6.256-8.23c-2.433-2.221-5.199-3.922-8.266-5.014c-3.048-1.084-6.361-1.568-9.93-1.374
		c-3.534,0.185-7.085,1.013-10.557,2.406c-3.445,1.374-6.847,3.295-10.098,5.683c-3.243,2.379-6.344,5.208-9.244,8.398
		c-2.89,3.19-5.578,6.741-7.993,10.592c-0.696-0.291-1.4-0.529-2.114-0.731c-0.723-0.212-1.455-0.379-2.186-0.493
		c-0.741-0.133-1.481-0.22-2.247-0.283c-0.75-0.043-1.507-0.078-2.283-0.061c-2.203,0.061-4.468,0.423-6.758,1.066
		c-2.282,0.652-4.582,1.595-6.891,2.846c-2.3,1.234-4.591,2.767-6.855,4.582c-2.256,1.816-4.476,3.922-6.645,6.318
		c-2.907,3.208-5.533,6.741-7.842,10.486c-2.309,3.746-4.3,7.701-5.965,11.782c-1.675,4.071-3.023,8.265-4.018,12.468
		c-1.005,4.221-1.656,8.45-1.93,12.61c-2.89,1.992-5.693,4.423-8.336,7.261c-2.627,2.828-5.103,6.045-7.35,9.569
		c-2.238,3.516-4.273,7.366-6.018,11.455c-1.744,4.089-3.208,8.442-4.327,12.989c-1.119,4.565-1.816,9.014-2.123,13.306
		c-0.318,4.31-0.238,8.442,0.202,12.336c0.45,3.904,1.252,7.561,2.406,10.891c1.163,3.349,2.679,6.353,4.494,8.936
		c-1.745,4.124-3.173,8.432-4.265,12.812c-1.102,4.379-1.842,8.848-2.221,13.28c-0.37,4.45-0.387,8.874,0.018,13.156
		c0.405,4.309,1.216,8.486,2.476,12.407c0.934,2.942,2.08,5.586,3.401,7.948c1.314,2.388,2.82,4.476,4.468,6.274
		c1.657,1.816,3.463,3.313,5.392,4.521c1.93,1.19,3.992,2.08,6.142,2.653C104.617,247.698,105.375,247.839,106.15,247.962z
		 M177.023,149.287c4.3-14.786,15.279-24.585,24.524-21.888c9.243,2.688,13.235,16.857,8.917,31.635
		c-4.3,14.786-15.279,24.576-24.523,21.888C176.706,178.225,172.714,164.065,177.023,149.287z"/>
</g>
</svg>