<svg xmlns="http://www.w3.org/2000/svg" xml:space="preserve" style="fill-rule:evenodd;clip-rule:evenodd;stroke-linejoin:round;stroke-miterlimit:2" viewBox="0 0 125 45"><path d="M0 0h125v45H0z" style="fill:none"/><path d="M118.91-81.125v25.632a7.98 7.98 0 0 1-7.975 7.975H7.694A7.98 7.98 0 0 1-.28-55.493v-25.632A7.98 7.98 0 0 1 7.694-89.1h103.241a7.98 7.98 0 0 1 7.975 7.975" style="fill:#c1c7c0" transform="translate(3.185 90.809)"/><path d="M123.547 31.265v5.037a7.5 7.5 0 0 1-7.496 7.496H8.998a7.55 7.55 0 0 1-7.546-7.547v-4.986z"/><path d="M36 78.188c0 8.871-7.191 16.062-16.062 16.062S3.875 87.059 3.875 78.188s7.191-16.063 16.063-16.063S36 69.316 36 78.188Z" style="fill:#fff;fill-rule:nonzero;stroke:#c1c7c0;stroke-width:1.86px" transform="translate(.547 -65.748)scale(1.12062)"/><path d="M36 78.188c0 8.871-7.191 16.062-16.062 16.062S3.875 87.059 3.875 78.188s7.191-16.063 16.063-16.063S36 69.316 36 78.188" style="fill:#fff;fill-rule:nonzero" transform="translate(2.952 -56.317)"/><path d="M19.681 60.977c-4.713 0-8.861 1.744-12.067 4.996-3.3 3.347-5.091 7.684-5.091 12.208 0 4.573 1.744 8.815 5.044 12.114s7.589 5.091 12.114 5.091c4.524 0 8.908-1.791 12.302-5.137 3.205-3.158 4.902-7.353 4.902-12.067 0-4.667-1.697-8.908-4.95-12.161-3.299-3.3-7.541-5.044-12.255-5.044zm.047 3.111c3.865 0 7.306 1.461 9.993 4.148 2.639 2.639 4.053 6.128 4.053 9.945 0 3.865-1.367 7.259-4.006 9.852-2.781 2.733-6.364 4.195-10.04 4.195-3.723 0-7.212-1.461-9.899-4.148s-4.195-6.222-4.195-9.899c0-3.723 1.509-7.258 4.195-9.993 2.64-2.686 6.034-4.1 9.899-4.1" style="fill-rule:nonzero" transform="translate(3.185 -56.311)"/><path d="M19.506 75.322c-.972-1.772-2.63-2.477-4.555-2.477-2.801 0-5.031 1.981-5.031 5.335 0 3.412 2.097 5.337 5.127 5.337 1.944 0 3.602-1.068 4.516-2.687l-2.134-1.086c-.477 1.142-1.201 1.486-2.115 1.486-1.582 0-2.307-1.315-2.307-3.049s.611-3.049 2.307-3.049c.457 0 1.372.247 1.905 1.391z" style="fill-rule:nonzero" transform="translate(3.185 -56.311)"/><path d="M19.506 75.322c-.972-1.772-2.63-2.477-4.555-2.477-2.801 0-5.031 1.981-5.031 5.335 0 3.412 2.097 5.337 5.127 5.337 1.944 0 3.602-1.068 4.516-2.687l-2.134-1.086c-.477 1.142-1.201 1.486-2.115 1.486-1.582 0-2.307-1.315-2.307-3.049s.611-3.049 2.307-3.049c.457 0 1.372.247 1.905 1.391z" style="fill-rule:nonzero" transform="translate(13.11 -56.311)"/><text style="font-family:&quot;Helvetica-Bold&quot;,&quot;Helvetica&quot;;font-weight:700;font-size:9.545px;fill:#fff" transform="matrix(1.0351 0 0 .96606 71.885 40.997)">BY</text><path d="M160.72 59.503c-5.94.15-10.72 5.022-10.72 10.999 0 6.072 4.928 10.999 11 10.999s11-4.928 11-10.999-4.928-10.999-11-10.999c-.095 0-.185-.002-.279 0zm-.011 1.891c.098-.003.192 0 .29 0 5.029 0 9.11 4.08 9.11 9.108s-4.081 9.109-9.11 9.109-9.109-4.08-9.109-9.109c0-4.929 3.927-8.953 8.819-9.108" style="fill-rule:nonzero" transform="translate(-81.889 -54.431)"/><path d="M30.01 31.878c0 14.671-11.893 26.564-26.564 26.564s-26.564-11.893-26.564-26.564S-11.225 5.314 3.446 5.314 30.01 17.207 30.01 31.878" style="fill:#fff;fill-rule:nonzero" transform="matrix(.34292 0 0 .3429 77.931 5.14)"/><path d="M80.548 10.558a1.437 1.437 0 1 1-2.873 0 1.437 1.437 0 0 1 2.873 0M77.64 23.019h2.944v-4.756h1.167v-4.372c-.001-.157.014-.47-.214-.697-.227-.227-.534-.214-.697-.213h-3.458c-.162 0-.469-.014-.697.213-.227.228-.212.54-.213.697v4.372h1.169z"/><path d="M123.548 8.592v27.816c0 4.079-3.311 7.39-7.39 7.39H8.842a7.393 7.393 0 0 1-7.39-7.39V8.592c0-4.079 3.312-7.39 7.39-7.39h107.316c4.079 0 7.39 3.311 7.39 7.39m-2.348 0a5.044 5.044 0 0 0-5.042-5.042H8.842A5.044 5.044 0 0 0 3.8 8.592v27.816a5.044 5.044 0 0 0 5.042 5.042h107.316a5.044 5.044 0 0 0 5.042-5.042z"/></svg>