<svg xmlns="http://www.w3.org/2000/svg" xml:space="preserve" style="fill-rule:evenodd;clip-rule:evenodd" viewBox="0 0 125 45"><g><path d="M0 0h125v45H0z" style="fill:none"/><clipPath id="a"><path d="M0 0h125v45H0z"/></clipPath><g clip-path="url(#a)"><path d="M118.91-29.82V8.46c0 .911-.74 1.651-1.652 1.651H1.371c-.911 0-1.651-.74-1.651-1.651v-38.28c0-.911.74-1.651 1.651-1.651h115.887c.912 0 1.652.74 1.652 1.651Z" style="fill:url(#b);stroke:#000;stroke-width:1px" transform="translate(3.185 33.18)"/><path d="M-.111-.94h3.052c3.812 5.996 8.731 9.417 16.783 9.354S33.313 4.486 36.647-.94l81.957.036-.01 9.369-1.857 1.503H1.747L.068 8.554z" style="fill-rule:nonzero;stroke:#000;stroke-width:1px" transform="translate(3.185 33.18)"/><path d="M36 78.188c0 8.871-7.191 16.062-16.062 16.062S3.875 87.059 3.875 78.188s7.191-16.063 16.063-16.063S36 69.316 36 78.188" style="fill:#fff;fill-rule:nonzero" transform="translate(2.952 -56.314)"/><path d="M19.681 60.977c-4.713 0-8.861 1.744-12.067 4.996-3.3 3.347-5.091 7.684-5.091 12.208 0 4.573 1.744 8.815 5.044 12.114s7.589 5.091 12.114 5.091c4.524 0 8.908-1.791 12.302-5.137 3.205-3.158 4.902-7.353 4.902-12.067 0-4.667-1.697-8.908-4.95-12.161-3.299-3.3-7.541-5.044-12.255-5.044zm.047 3.111c3.865 0 7.306 1.461 9.993 4.148 2.639 2.639 4.053 6.128 4.053 9.945 0 3.865-1.367 7.259-4.006 9.852-2.781 2.733-6.364 4.195-10.04 4.195-3.723 0-7.212-1.461-9.899-4.148s-4.195-6.222-4.195-9.899c0-3.723 1.509-7.258 4.195-9.993 2.64-2.686 6.034-4.1 9.899-4.1" style="fill-rule:nonzero" transform="translate(3.185 -56.308)"/><path d="M19.506 75.322c-.972-1.772-2.63-2.477-4.555-2.477-2.801 0-5.031 1.981-5.031 5.335 0 3.412 2.097 5.337 5.127 5.337 1.944 0 3.602-1.068 4.516-2.687l-2.134-1.086c-.477 1.142-1.201 1.486-2.115 1.486-1.582 0-2.307-1.315-2.307-3.049s.611-3.049 2.307-3.049c.457 0 1.372.247 1.905 1.391z" style="fill-rule:nonzero" transform="translate(3.185 -56.308)"/><path d="M19.506 75.322c-.972-1.772-2.63-2.477-4.555-2.477-2.801 0-5.031 1.981-5.031 5.335 0 3.412 2.097 5.337 5.127 5.337 1.944 0 3.602-1.068 4.516-2.687l-2.134-1.086c-.477 1.142-1.201 1.486-2.115 1.486-1.582 0-2.307-1.315-2.307-3.049s.611-3.049 2.307-3.049c.457 0 1.372.247 1.905 1.391z" style="fill-rule:nonzero" transform="translate(13.11 -56.308)"/><text style="font-family:&quot;Helvetica-Bold&quot;,&quot;Helvetica&quot;;font-weight:700;font-size:9.545px;fill:#fff" transform="matrix(1.0351 0 0 .96606 58.834 40.997)">BY<tspan x="13.101px 15.758px" y="0px 0px"> S</tspan>A</text><path d="M160.72 59.503c-5.94.15-10.72 5.022-10.72 10.999 0 6.072 4.928 10.999 11 10.999s11-4.928 11-10.999-4.928-10.999-11-10.999c-.095 0-.185-.002-.279 0zm-.011 1.891c.098-.003.192 0 .29 0 5.029 0 9.11 4.08 9.11 9.108s-4.081 9.109-9.11 9.109-9.109-4.08-9.109-9.109c0-4.929 3.927-8.953 8.819-9.108" style="fill-rule:nonzero" transform="translate(-94.94 -54.433)"/><path d="M30.01 31.878c0 14.671-11.893 26.564-26.564 26.564s-26.564-11.893-26.564-26.564S-11.225 5.314 3.446 5.314 30.01 17.207 30.01 31.878" style="fill:#fff;fill-rule:nonzero" transform="matrix(.34292 0 0 .3429 64.88 5.138)"/><path d="M67.497 10.556a1.437 1.437 0 1 1-2.873 0 1.437 1.437 0 0 1 2.873 0M64.59 23.017h2.943V18.26H68.7V13.89c-.001-.157.014-.47-.214-.697-.227-.227-.534-.214-.697-.213h-3.458c-.162 0-.469-.014-.697.213-.227.228-.212.54-.213.697v4.372h1.169z"/><path d="M62.221 62.253C56.28 62.404 51.5 67.275 51.5 73.252c0 6.072 4.928 10.999 11 10.999s11-4.928 11-10.999-4.928-10.999-11-10.999c-.095 0-.185-.003-.279 0m-.011 1.891c.098-.004.192 0 .29 0 5.029 0 9.11 4.08 9.11 9.108s-4.081 9.109-9.11 9.109-9.109-4.081-9.109-9.109c0-4.93 3.926-8.953 8.819-9.108" style="fill-rule:nonzero" transform="translate(36.185 -57.183)"/><path d="M30.01 31.878c0 14.671-11.893 26.564-26.564 26.564s-26.564-11.893-26.564-26.564S-11.225 5.314 3.446 5.314 30.01 17.207 30.01 31.878" style="fill:#fff;fill-rule:nonzero" transform="matrix(.34292 0 0 .3429 97.503 5.138)"/><path d="M57.727 71.459h-.942l2.138 2.395 2.137-2.395h-.771c.167-1.169 1.195-1.92 2.383-1.826.047.004.092 0 .139 0 1.935 0 2.698 1.463 2.761 3.62.066 2.251-1.239 3.65-2.761 3.62-1.606-.032-2.215-.8-2.449-1.966h-2.868c.472 2.685 2.449 4.26 5.253 4.264 3.174.006 5.468-2.649 5.468-5.918 0-3.491-2.293-5.919-5.468-5.919-.094 0-.186-.006-.28 0q-.031.001-.064 0c-1.984.033-4.676 1.423-4.676 4.125" style="fill-rule:nonzero" transform="translate(36.185 -57.183)"/></g></g><defs><radialGradient id="b" cx="0" cy="0" r="1" gradientTransform="rotate(.363 1757.017 3007.88)scale(24.22519 24.21979)" gradientUnits="userSpaceOnUse"><stop offset="0" style="stop-color:#a3b0a1;stop-opacity:0"/><stop offset="1" style="stop-color:#abb1aa;stop-opacity:1"/></radialGradient></defs></svg>