<svg xmlns="http://www.w3.org/2000/svg" xml:space="preserve" style="fill-rule:evenodd;clip-rule:evenodd" viewBox="2.4 1.2 120.2 42.6"><g><path d="M0 0h125v45H0z" style="fill:none"/><clipPath id="a"><path d="M0 0h125v45H0z"/></clipPath><g clip-path="url(#a)"><path d="M118.91 15.36v38.28c0 .911-.74 1.651-1.652 1.651H1.371c-.911 0-1.651-.74-1.651-1.651V15.36c0-.911.74-1.651 1.651-1.651h115.887c.912 0 1.652.74 1.652 1.651Z" style="fill:url(#b);stroke:#000;stroke-width:1px" transform="translate(3.185 -12)"/><path d="M-.111 44.239h3.052c3.812 5.997 8.731 9.417 16.783 9.354s13.589-3.928 16.923-9.354l81.957.037-.01 9.369-1.857 1.502H1.747L.068 53.733z" style="fill-rule:nonzero;stroke:#000;stroke-width:1px" transform="translate(3.185 -12)"/><path d="M36 78.188c0 8.871-7.191 16.062-16.062 16.062S3.875 87.059 3.875 78.188s7.191-16.063 16.063-16.063S36 69.316 36 78.188" style="fill:#fff;fill-rule:nonzero" transform="translate(2.952 -56.314)"/><path d="M19.681 60.977c-4.713 0-8.861 1.744-12.067 4.996-3.3 3.347-5.091 7.684-5.091 12.208 0 4.573 1.744 8.815 5.044 12.114s7.589 5.091 12.114 5.091c4.524 0 8.908-1.791 12.302-5.137 3.205-3.158 4.902-7.353 4.902-12.067 0-4.667-1.697-8.908-4.95-12.161-3.299-3.3-7.541-5.044-12.255-5.044zm.047 3.111c3.865 0 7.306 1.461 9.993 4.148 2.639 2.639 4.053 6.128 4.053 9.945 0 3.865-1.367 7.259-4.006 9.852-2.781 2.733-6.364 4.195-10.04 4.195-3.723 0-7.212-1.461-9.899-4.148s-4.195-6.222-4.195-9.899c0-3.723 1.509-7.258 4.195-9.993 2.64-2.686 6.034-4.1 9.899-4.1" style="fill-rule:nonzero" transform="translate(3.185 -56.308)"/><path d="M19.506 75.322c-.972-1.772-2.63-2.477-4.555-2.477-2.801 0-5.031 1.981-5.031 5.335 0 3.412 2.097 5.337 5.127 5.337 1.944 0 3.602-1.068 4.516-2.687l-2.134-1.086c-.477 1.142-1.201 1.486-2.115 1.486-1.582 0-2.307-1.315-2.307-3.049s.611-3.049 2.307-3.049c.457 0 1.372.247 1.905 1.391z" style="fill-rule:nonzero" transform="translate(3.185 -56.308)"/><path d="M19.506 75.322c-.972-1.772-2.63-2.477-4.555-2.477-2.801 0-5.031 1.981-5.031 5.335 0 3.412 2.097 5.337 5.127 5.337 1.944 0 3.602-1.068 4.516-2.687l-2.134-1.086c-.477 1.142-1.201 1.486-2.115 1.486-1.582 0-2.307-1.315-2.307-3.049s.611-3.049 2.307-3.049c.457 0 1.372.247 1.905 1.391z" style="fill-rule:nonzero" transform="translate(13.11 -56.308)"/><text style="font-family:&quot;Helvetica-Bold&quot;,&quot;Helvetica&quot;;font-weight:700;font-size:9.545px;fill:#fff" transform="matrix(1.0351 0 0 .96606 58.834 40.997)">BY<tspan x="13.101px 15.758px" y="0px 0px"> N</tspan>C</text><path d="M134.97 59.753c-5.94.15-10.72 5.022-10.72 10.999 0 6.072 4.928 10.999 11 10.999s11-4.928 11-10.999-4.928-10.999-11-10.999c-.095 0-.185-.002-.279 0zm-.011 1.891c.098-.004.192 0 .29 0 5.029 0 9.11 4.08 9.11 9.108s-4.081 9.109-9.11 9.109-9.109-4.08-9.109-9.109c0-4.929 3.926-8.953 8.819-9.108" style="fill-rule:nonzero" transform="translate(-36.565 -54.683)"/><path d="M144.36 70.752c0 4.997-4.112 9.109-9.109 9.109-4.998 0-9.11-4.112-9.11-9.109s4.112-9.109 9.11-9.109 9.109 4.112 9.109 9.109" style="fill:#fff;fill-rule:nonzero" transform="translate(-36.565 -54.683)"/><path d="M133.07 73.07c.708.991 2.871 1.062 3.613.642.272-.154.34-.6.34-.903q0-.311-.164-.489c-.115-.119-.409-.42-.749-.509-1.724-.445-2.918-1.001-3.386-1.404-.583-.504-.677-.833-.677-1.712 0-.878.253-1.614.823-2.142q.857-.79 2.487-.791c1.038 0 2.498.274 3.21 1.119l-1.187 1.291c-.669-.562-1.167-.613-1.987-.613-.516 0-.785.074-1.003.223q-.328.213-.328.56 0 .312.3.516c.201.143.724.356 1.769.641q1.757.48 2.386 1.166.62.684.619 1.824 0 1.37-.965 2.26c-.638.593-1.423 1.054-2.552 1.054-1.454 0-3.394-.513-3.929-1.462" style="fill-rule:nonzero" transform="translate(-36.565 -54.683)"/><path d="m144.65 73.539-.828 1.815-17.573-7.918.828-1.815 17.574 7.918zM134.69 64.178v2.353h1.117v-2.353zm0 11.032v2.116h1.117V75.21z" style="fill-rule:nonzero" transform="translate(-36.565 -54.683)"/><path d="M160.72 59.503c-5.94.15-10.72 5.022-10.72 10.999 0 6.072 4.928 10.999 11 10.999s11-4.928 11-10.999-4.928-10.999-11-10.999c-.095 0-.185-.002-.279 0zm-.011 1.891c.098-.003.192 0 .29 0 5.029 0 9.11 4.08 9.11 9.108s-4.081 9.109-9.11 9.109-9.109-4.08-9.109-9.109c0-4.929 3.927-8.953 8.819-9.108" style="fill-rule:nonzero" transform="translate(-94.94 -54.433)"/><path d="M30.01 31.878c0 14.671-11.893 26.564-26.564 26.564s-26.564-11.893-26.564-26.564S-11.225 5.314 3.446 5.314 30.01 17.207 30.01 31.878" style="fill:#fff;fill-rule:nonzero" transform="matrix(.34292 0 0 .3429 64.88 5.138)"/><path d="M67.497 10.556a1.437 1.437 0 1 1-2.873 0 1.437 1.437 0 0 1 2.873 0M64.59 23.017h2.943V18.26H68.7V13.89c-.001-.157.014-.47-.214-.697-.227-.227-.534-.214-.697-.213h-3.458c-.162 0-.469-.014-.697.213-.227.228-.212.54-.213.697v4.372h1.169z"/></g></g><defs><radialGradient id="b" cx="0" cy="0" r="1" gradientTransform="matrix(24.2247 .15349 -.15345 24.2193 19.092 34.108)" gradientUnits="userSpaceOnUse"><stop offset="0" style="stop-color:#a3b0a1;stop-opacity:0"/><stop offset="1" style="stop-color:#abb1aa;stop-opacity:1"/></radialGradient></defs></svg>