<svg xmlns="http://www.w3.org/2000/svg" viewBox="0 0 64 64" fill="currentColor" role="img" aria-label="Creative Commons">
  <path d="M32 0C14.327 0 0 14.327 0 32s14.327 32 32 32 32-14.327 32-32S49.673 0 32 0zm0 5.76c14.492 0 26.24 11.748 26.24 26.24S46.492 58.24 32 58.24 5.76 46.492 5.76 32 17.508 5.76 32 5.76z"/>
  <path d="M24.06 26.6c-1.046-1.706-2.706-2.56-4.98-2.56-1.86 0-3.39.63-4.59 1.89-1.2 1.26-1.8 2.97-1.8 5.13 0 2.22.58 3.96 1.74 5.22 1.16 1.26 2.71 1.89 4.65 1.89 2.46 0 4.24-.97 5.34-2.91l2.97 2.07c-1.86 3.18-4.71 4.77-8.55 4.77-3.18 0-5.78-1.04-7.8-3.12-2.02-2.08-3.03-4.82-3.03-8.22 0-3.36 1.02-6.08 3.06-8.16 2.04-2.08 4.66-3.12 7.86-3.12 1.82 0 3.51.42 5.07 1.26 1.56.84 2.78 2 3.66 3.48l-3.6 2.43c-.06-.04-.12-.08-.18-.12z"/>
  <path d="M44.7 26.6c-1.046-1.706-2.706-2.56-4.98-2.56-1.86 0-3.39.63-4.59 1.89-1.2 1.26-1.8 2.97-1.8 5.13 0 2.22.58 3.96 1.74 5.22 1.16 1.26 2.71 1.89 4.65 1.89 2.46 0 4.24-.97 5.34-2.91l2.97 2.07c-1.86 3.18-4.71 4.77-8.55 4.77-3.18 0-5.78-1.04-7.8-3.12-2.02-2.08-3.03-4.82-3.03-8.22 0-3.36 1.02-6.08 3.06-8.16 2.04-2.08 4.66-3.12 7.86-3.12 1.82 0 3.51.42 5.07 1.26 1.56.84 2.78 2 3.66 3.48l-3.6 2.43c-.06-.04-.12-.08-.18-.12z"/>
</svg>
