<?xml version="1.0" encoding="UTF-8"?>
<svg width="680px" height="158px" viewBox="0 0 680 158" version="1.1" xmlns="http://www.w3.org/2000/svg" xmlns:xlink="http://www.w3.org/1999/xlink">
    <title>musiccloud-banner-very-small</title>
    <defs>
        <linearGradient x1="-2.08095344%" y1="0%" x2="171.983442%" y2="0%" id="linearGradient-1">
            <stop stop-color="#FF6699" offset="0.001%"></stop>
            <stop stop-color="#9966FF" offset="14%"></stop>
            <stop stop-color="#4D99FF" offset="28%"></stop>
            <stop stop-color="#00CCE6" offset="42%"></stop>
            <stop stop-color="#00E6B3" offset="57%"></stop>
            <stop stop-color="#80E64D" offset="71%"></stop>
            <stop stop-color="#E6E64D" offset="85%"></stop>
            <stop stop-color="#FFB34D" offset="100%"></stop>
        </linearGradient>
        <linearGradient x1="-757.35956%" y1="0.243813981%" x2="516.96939%" y2="0.243813981%" id="linearGradient-2">
            <stop stop-color="#FF6699" offset="0.001%"></stop>
            <stop stop-color="#9966FF" offset="14%"></stop>
            <stop stop-color="#4D99FF" offset="28%"></stop>
            <stop stop-color="#00CCE6" offset="42%"></stop>
            <stop stop-color="#00E6B3" offset="57%"></stop>
            <stop stop-color="#80E64D" offset="71%"></stop>
            <stop stop-color="#E6E64D" offset="85%"></stop>
            <stop stop-color="#FFB34D" offset="100%"></stop>
        </linearGradient>
        <linearGradient x1="-223.474247%" y1="3.96253957%" x2="103.862177%" y2="3.96253957%" id="linearGradient-3">
            <stop stop-color="#FF6699" offset="0.001%"></stop>
            <stop stop-color="#9966FF" offset="14%"></stop>
            <stop stop-color="#4D99FF" offset="28%"></stop>
            <stop stop-color="#00CCE6" offset="42%"></stop>
            <stop stop-color="#00E6B3" offset="57%"></stop>
            <stop stop-color="#80E64D" offset="71%"></stop>
            <stop stop-color="#E6E64D" offset="85%"></stop>
            <stop stop-color="#FFB34D" offset="100%"></stop>
        </linearGradient>
    </defs>
    <g id="musiccloud-banner-very-small" stroke="none" fill="none" fill-rule="evenodd" stroke-width="1">
        <g id="Group">
            <g id="Group">
                <path d="M21.3575795,38.4621 C15.689142,38.4621 13.4419531,40.596675 13.4419531,47.2137237 L13.4419531,94.810375 L24.7814844,94.810375 L24.7814844,50.9489 C24.7814844,49.88095 25.209142,49.346975 26.1720326,49.346975 L54.8396094,49.346975 L54.8396094,94.810375 L66.2867187,94.810375 L66.2867187,49.346975 L79.5507018,49.346975 C91.424138,49.346975 96.5586759,54.2560974 96.5586759,63.1150487 L96.5586759,94.810375 L108.004452,94.810375 L108.004452,63.1150487 C108.004452,47.5330513 98.5920326,38.4621 79.4431277,38.4621 L21.3575795,38.4621 Z M123.08797,38.4621 L123.08797,72.6126474 C123.08797,85.6320974 131.431249,94.810375 147.583909,94.810375 L158.068124,94.810375 C174.220793,94.810375 182.564072,85.6320974 182.564072,72.6126474 L182.564072,38.4621 L171.43837,38.4621 L171.43837,72.186 C171.43837,78.801725 166.625234,83.8181737 157.639142,83.8181737 L148.440544,83.8181737 C139.454452,83.8181737 134.533747,78.801725 134.533747,72.186 L134.533747,38.4621 L123.08797,38.4621 Z M214.227884,38.4621 C201.070152,38.4621 195.828055,44.7584987 195.828055,54.8973987 C195.828055,63.5417013 199.679609,71.3313737 215.297035,71.3313737 L228.668588,71.3313737 C234.33835,71.3313737 236.691792,73.1466277 236.691792,77.6277777 C236.691792,82.0042487 234.552193,83.8181737 229.310075,83.8181737 L196.470859,83.8181737 L196.470859,94.810375 L229.310075,94.810375 C242.575396,94.810375 247.816176,87.7666724 247.816176,77.7350987 C247.816176,68.983475 243.858349,61.833775 228.240944,61.833775 L214.97696,61.833775 C208.664375,61.833775 206.953757,59.6992 206.953757,55.7507 C206.953757,51.48155 209.093357,49.346975 214.334137,49.346975 L245.570305,49.346975 L245.570305,38.4621 L214.227884,38.4621 Z M261.18773,38.4621 L261.18773,94.810375 L272.527274,94.810375 L272.527274,38.4621 L261.18773,38.4621 Z M261.18773,17.225 L261.18773,30.3517723 L272.633506,30.3517723 L272.633506,17.225 L261.18773,17.225 Z M310.608587,38.4621 C295.525078,38.4621 286.11265,47.6403777 286.11265,66.635575 C286.11265,85.6320974 295.525078,94.810375 310.608587,94.810375 L339.705156,94.810375 L339.705156,83.8181737 L311.677738,83.8181737 C301.837664,83.8181737 297.558445,78.801725 297.558445,66.635575 C297.558445,54.4707513 301.837664,49.346975 311.677738,49.346975 L339.705156,49.346975 L339.705156,38.4621 L310.608587,38.4621 Z M375.005384,38.4621 C359.921875,38.4621 350.509445,47.6403777 350.509445,66.635575 C350.509445,85.6320974 359.921875,94.810375 375.005384,94.810375 L404.101973,94.810375 L404.101973,83.8181737 L376.074514,83.8181737 C366.233144,83.8181737 361.955242,78.801725 361.955242,66.635575 C361.955242,54.4707513 366.233144,49.346975 376.074514,49.346975 L404.101973,49.346975 L404.101973,38.4621 L375.005384,38.4621 Z" id="Path" fill="url(#linearGradient-1)" fill-rule="nonzero"></path>
                <path d="M466.796095,26.233675 L466.796095,9.71225265 C466.796095,7.49552235 465.024356,6.04067235 462.838268,6.49117765 L440.41023,11.3751237 C437.771246,11.9289724 436.348845,13.3838224 436.348845,15.7039066 L436.452403,64.9567974 C436.660936,67.2768777 435.514755,68.835075 433.466797,69.2511237 L426.349363,70.740425 C417.566504,72.5411013 413.434677,76.9401013 413.434677,83.5902777 C413.434677,90.240454 418.538685,94.8819263 425.828741,94.8819263 C432.320616,94.8819263 441.903034,90.1715513 441.903034,77.3906013 L441.903034,36.9356987 C441.903034,34.4420487 442.423656,33.8537487 444.71468,33.3343513 L464.538267,29.0042487 C465.927513,28.6928737 466.796095,27.6540777 466.796095,26.233675 Z" id="path1" fill="url(#linearGradient-2)"></path>
                <path d="M483.422909,38.4621 C468.33936,38.4621 458.92697,47.6403777 458.92697,66.635575 C458.92697,85.6320973 468.33936,94.810375 483.422909,94.810375 L495.29631,94.810375 C510.272248,94.810375 519.793584,85.6320973 519.793584,66.635575 C519.793584,47.6403777 510.272248,38.4621 495.29631,38.4621 L483.422909,38.4621 Z M494.227178,49.346975 C503.96102,49.346975 508.346491,54.4707513 508.346491,66.635575 C508.346491,78.801725 503.96102,83.8181737 494.227178,83.8181737 L484.492039,83.8181737 C474.650629,83.8181737 470.372726,78.801725 470.372726,66.635575 C470.372726,54.4707513 474.650629,49.346975 484.492039,49.346975 L494.227178,49.346975 Z M533.057568,38.4621 L533.057568,72.6126473 C533.057568,85.6320973 541.400866,94.810375 557.553506,94.810375 L568.037741,94.810375 C584.19038,94.810375 592.533679,85.6320973 592.533679,72.6126473 L592.533679,38.4621 L581.407957,38.4621 L581.407957,72.186 C581.407957,78.801725 576.594841,83.8181737 567.608759,83.8181737 L558.410172,83.8181737 C549.424049,83.8181737 544.503365,78.801725 544.503365,72.186 L544.503365,38.4621 L533.057568,38.4621 Z M655.21852,14.0238 L655.21852,38.4621 L630.294938,38.4621 C615.211389,38.4621 605.797663,47.6403777 605.797663,66.635575 C605.797663,85.6320973 615.211389,94.810375 630.294938,94.810375 L645.912364,94.810375 C659.39015,94.810375 666.664317,86.9133763 666.664317,70.6914013 L666.664317,14.0238 L655.21852,14.0238 Z M642.596024,83.8181737 L631.364069,83.8181737 C621.630228,83.8181737 617.243419,78.801725 617.243419,66.635575 C617.243419,54.4707513 621.630228,49.346975 631.364069,49.346975 L655.21852,49.346975 L655.21852,70.1574263 C655.21852,79.7623526 651.688378,83.8181737 642.596024,83.8181737 Z" id="path2" fill="url(#linearGradient-3)" fill-rule="nonzero"></path>
            </g>
            <g id="share-it-everywhere" transform="translate(100.3841, 110.2069)" fill="#C8C8C8" fill-rule="nonzero">
                <path d="M48.6244472,14.464 C44.0734472,14.464 42.2604472,16.647 42.2604472,20.162 C42.2604472,23.159 43.5924472,25.86 48.9944472,25.86 L53.6194472,25.86 C55.5804472,25.86 56.3944472,26.489 56.3944472,28.043 C56.3944472,29.56 55.6544472,30.189 53.8414472,30.189 L42.4824472,30.189 L42.4824472,34 L53.8414472,34 C58.4294472,34 60.2424472,31.558 60.2424472,28.08 C60.2424472,25.046 58.8734472,22.567 53.4714472,22.567 L48.8834472,22.567 C46.7004472,22.567 46.1084472,21.827 46.1084472,20.458 C46.1084472,18.978 46.8484472,18.238 48.6614472,18.238 L59.4654472,18.238 L59.4654472,14.464 L48.6244472,14.464 Z" id="Path"></path>
                <path d="M64.8674472,5.991 L64.8674472,34 L68.7894472,34 L68.7894472,18.238 L75.6714472,18.238 C79.7414472,18.238 81.5544472,20.014 81.5544472,23.011 L81.5544472,34 L85.5134472,34 L85.5134472,23.011 C85.5134472,17.646 82.2574472,14.464 75.6714472,14.464 L68.7894472,14.464 L68.7894472,5.991 L64.8674472,5.991 Z" id="Path"></path>
                <path d="M91.8034472,14.464 L91.8034472,18.238 L103.495447,18.238 C105.641447,18.238 106.492447,19.422 106.492447,20.939 L106.492447,22.419 L97.2054472,22.419 C92.3954472,22.419 90.6194472,24.491 90.6194472,28.043 C90.6194472,31.743 92.5434472,34 97.1684472,34 L106.307447,34 C109.600447,34 110.340447,32.89 110.340447,30.078 L110.340447,20.902 C110.340447,17.202 108.416447,14.464 103.532447,14.464 L91.8034472,14.464 Z M105.419447,30.189 L97.2054472,30.189 C95.2444472,30.189 94.4674472,29.264 94.4674472,27.821 C94.4674472,26.378 95.2074472,25.527 97.2794472,25.527 L106.492447,25.527 L106.492447,29.19 C106.492447,29.893 106.196447,30.189 105.419447,30.189 Z" id="Shape"></path>
                <path d="M121.144447,14.464 C117.296447,14.464 115.853447,16.24 115.853447,20.162 L115.853447,34 L119.775447,34 L119.775447,20.754 C119.775447,19.052 120.552447,18.238 122.291447,18.238 L129.173447,18.238 L129.173447,14.464 L121.144447,14.464 Z" id="Path"></path>
                <path d="M139.422447,14.464 C134.538447,14.464 132.614447,17.202 132.614447,20.902 L132.614447,27.562 C132.614447,31.262 134.538447,34 139.422447,34 L151.373447,34 L151.373447,30.189 L139.422447,30.189 C137.276447,30.189 136.425447,29.042 136.425447,27.488 L136.425447,26.082 L145.712447,26.082 C150.522447,26.082 152.335447,24.047 152.335447,20.458 C152.335447,16.684 150.374447,14.464 145.749447,14.464 L139.422447,14.464 Z M136.425447,20.939 C136.425447,19.422 137.276447,18.238 139.422447,18.238 L145.712447,18.238 C147.636447,18.238 148.487447,19.2 148.487447,20.68 C148.487447,22.123 147.710447,23.011 145.601447,23.011 L136.425447,23.011 L136.425447,20.939 Z" id="Shape"></path>
                <path d="M167.024447,14.464 L167.024447,34 L170.946447,34 L170.946447,14.464 L167.024447,14.464 Z M167.024447,7.101 L167.024447,11.652 L170.983447,11.652 L170.983447,7.101 L167.024447,7.101 Z" id="Shape"></path>
                <path d="M174.609447,14.464 L174.609447,18.238 L177.273447,18.238 L177.273447,27.266 C177.273447,32.372 179.012447,34 183.045447,34 L186.560447,34 L186.560447,30.411 L183.859447,30.411 C182.009447,30.411 181.232447,29.671 181.232447,27.488 L181.232447,18.238 L186.634447,18.238 L186.634447,14.464 L181.232447,14.464 L181.232447,9.839 L177.273447,9.839 L177.273447,14.464 L174.609447,14.464 Z" id="Path"></path>
                <path d="M206.725447,14.464 C201.841447,14.464 199.917447,17.202 199.917447,20.902 L199.917447,27.562 C199.917447,31.262 201.841447,34 206.725447,34 L218.676447,34 L218.676447,30.189 L206.725447,30.189 C204.579447,30.189 203.728447,29.042 203.728447,27.488 L203.728447,26.082 L213.015447,26.082 C217.825447,26.082 219.638447,24.047 219.638447,20.458 C219.638447,16.684 217.677447,14.464 213.052447,14.464 L206.725447,14.464 Z M203.728447,20.939 C203.728447,19.422 204.579447,18.238 206.725447,18.238 L213.015447,18.238 C214.939447,18.238 215.790447,19.2 215.790447,20.68 C215.790447,22.123 215.013447,23.011 212.904447,23.011 L203.728447,23.011 L203.728447,20.939 Z" id="Shape"></path>
                <path d="M221.673447,14.464 L228.851447,31.891 C229.591447,33.704 231.034447,34.444 233.291447,34.444 C235.511447,34.444 236.954447,33.741 237.768447,31.891 L245.316447,14.464 L241.098447,14.464 L234.327447,30.152 C234.142447,30.559 233.809447,30.744 233.291447,30.744 C232.810447,30.744 232.477447,30.559 232.329447,30.152 L225.817447,14.464 L221.673447,14.464 Z" id="Path"></path>
                <path d="M254.159447,14.464 C249.275447,14.464 247.351447,17.202 247.351447,20.902 L247.351447,27.562 C247.351447,31.262 249.275447,34 254.159447,34 L266.110447,34 L266.110447,30.189 L254.159447,30.189 C252.013447,30.189 251.162447,29.042 251.162447,27.488 L251.162447,26.082 L260.449447,26.082 C265.259447,26.082 267.072447,24.047 267.072447,20.458 C267.072447,16.684 265.111447,14.464 260.486447,14.464 L254.159447,14.464 Z M251.162447,20.939 C251.162447,19.422 252.013447,18.238 254.159447,18.238 L260.449447,18.238 C262.373447,18.238 263.224447,19.2 263.224447,20.68 C263.224447,22.123 262.447447,23.011 260.338447,23.011 L251.162447,23.011 L251.162447,20.939 Z" id="Shape"></path>
                <path d="M277.136447,14.464 C273.288447,14.464 271.845447,16.24 271.845447,20.162 L271.845447,34 L275.767447,34 L275.767447,20.754 C275.767447,19.052 276.544447,18.238 278.283447,18.238 L285.165447,18.238 L285.165447,14.464 L277.136447,14.464 Z" id="Path"></path>
                <path d="M305.996447,14.464 L299.373447,29.819 L298.855447,29.819 C298.115447,29.819 297.930447,29.708 297.671447,29.005 L291.788447,14.464 L287.644447,14.464 L294.193447,30.892 C294.859447,32.594 295.636447,33.297 297.856447,33.297 L294.193447,41.844 L298.411447,41.844 L310.177447,14.464 L305.996447,14.464 Z" id="Path"></path>
                <path d="M312.730447,14.464 L314.765447,29.93 C315.135447,32.631 316.430447,34.444 320.056447,34.444 C323.164447,34.444 324.829447,33.112 325.458447,30.411 L328.233447,18.534 C328.381447,17.868 328.899447,17.572 329.676447,17.572 C330.416447,17.572 330.971447,17.868 331.119447,18.534 L333.746447,30.411 C334.338447,33.112 335.966447,34.444 339.000447,34.444 C342.552447,34.444 344.106447,32.631 344.476447,29.93 L346.659447,14.464 L342.404447,14.464 L340.369447,29.708 C340.258447,30.559 339.925447,30.966 339.037447,30.966 C338.149447,30.966 337.705447,30.596 337.557447,29.893 L334.930447,18.053 C334.338447,15.463 332.821447,14.094 329.713447,14.094 C326.605447,14.094 324.940447,15.463 324.348447,18.053 L321.573447,29.893 C321.388447,30.596 321.018447,30.966 320.130447,30.966 C319.205447,30.966 318.835447,30.559 318.724447,29.708 L316.985447,14.464 L312.730447,14.464 Z" id="Path"></path>
                <path d="M350.581447,5.991 L350.581447,34 L354.503447,34 L354.503447,18.238 L361.385447,18.238 C365.455447,18.238 367.268447,20.014 367.268447,23.011 L367.268447,34 L371.227447,34 L371.227447,23.011 C371.227447,17.646 367.971447,14.464 361.385447,14.464 L354.503447,14.464 L354.503447,5.991 L350.581447,5.991 Z" id="Path"></path>
                <path d="M383.141447,14.464 C378.257447,14.464 376.333447,17.202 376.333447,20.902 L376.333447,27.562 C376.333447,31.262 378.257447,34 383.141447,34 L395.092447,34 L395.092447,30.189 L383.141447,30.189 C380.995447,30.189 380.144447,29.042 380.144447,27.488 L380.144447,26.082 L389.431447,26.082 C394.241447,26.082 396.054447,24.047 396.054447,20.458 C396.054447,16.684 394.093447,14.464 389.468447,14.464 L383.141447,14.464 Z M380.144447,20.939 C380.144447,19.422 380.995447,18.238 383.141447,18.238 L389.431447,18.238 C391.355447,18.238 392.206447,19.2 392.206447,20.68 C392.206447,22.123 391.429447,23.011 389.320447,23.011 L380.144447,23.011 L380.144447,20.939 Z" id="Shape"></path>
                <path d="M406.118447,14.464 C402.270447,14.464 400.827447,16.24 400.827447,20.162 L400.827447,34 L404.749447,34 L404.749447,20.754 C404.749447,19.052 405.526447,18.238 407.265447,18.238 L414.147447,18.238 L414.147447,14.464 L406.118447,14.464 Z" id="Path"></path>
                <path d="M424.396447,14.464 C419.512447,14.464 417.588447,17.202 417.588447,20.902 L417.588447,27.562 C417.588447,31.262 419.512447,34 424.396447,34 L436.347447,34 L436.347447,30.189 L424.396447,30.189 C422.250447,30.189 421.399447,29.042 421.399447,27.488 L421.399447,26.082 L430.686447,26.082 C435.496447,26.082 437.309447,24.047 437.309447,20.458 C437.309447,16.684 435.348447,14.464 430.723447,14.464 L424.396447,14.464 Z M421.399447,20.939 C421.399447,19.422 422.250447,18.238 424.396447,18.238 L430.686447,18.238 C432.610447,18.238 433.461447,19.2 433.461447,20.68 C433.461447,22.123 432.684447,23.011 430.575447,23.011 L421.399447,23.011 L421.399447,20.939 Z" id="Shape"></path>
            </g>
        </g>
    </g>
</svg>